# xmcd CD database file
#
# Track frame offsets:
#	150
#	19727
#	40305
#	57475
#	80750
#	101215
#	122530
#	137635
#	190070
#	208875
#	228027
#	246867
#	263497
#	281102
#	298605
#	312525
#
# Disc length: 4511 seconds
#
# Revision: 0
# Processed by: cddbd v1.5.1PL2 Copyright (c) Steve Scherf et al.
# Submitted via: CDex 1.51
#
DISCID=ef119d10
DTITLE=スーパーロボット大戦 - スーペーロボット魂オリジナル・テーマソング集
DYEAR=2005
DGENRE=Anime
TTITLE0=時を越えて
TTITLE1=鋼の魂（SRX）
TTITLE2=熱風！疾風！サイバスター
TTITLE3=EVERYWHERE YOU GO!!
TTITLE4=戦友よ。〜SUPER ROBOT WARS a〜
TTITLE5=BLACK HOLE
TTITLE6=TIME TO COME
TTITLE7=エターナルファイト
TTITLE8=TIME DIVER
TTITLE9=ICE MAN
TTITLE10=VANISHING TROOPER
TTITLE11=熱き血が勇気に〜ロボットジェネレーション賛歌〜
TTITLE12=グルンガスト・斬!!
TTITLE13=鋼鉄のコクピット
TTITLE14=君は閃光☆THUNDERBOLT
TTITLE15=スーパーロボット永遠なれ
EXTD=YEAR: 2005
EXTT0=
EXTT1=
EXTT2=
EXTT3=
EXTT4=
EXTT5=
EXTT6=
EXTT7=
EXTT8=
EXTT9=
EXTT10=
EXTT11=
EXTT12=
EXTT13=
EXTT14=
EXTT15=
PLAYORDER=
